# xmcd
# Track frame offsets:
# 150
# 15777
# 32625
# 44962
# 59775
# 72937
# 92737
# 112950
# 135750
# 150937
# 165175
#
# Disc length: 2349 seconds
# Revision: 0
# Processed by: cddbd v1.4PL0 Copyright (c) Steve Scherf et al.
# Submitted via: VisiTrax 2.9.5.180 - For more info visit www.synapsa.com
#
DISCID=7e092b0b
DTITLE=Poker Alice - Don't call me after 10
DYEAR=1999
DGENRE=
TTITLE0=Don't call me after 10
TTITLE1=Looks like a woman
TTITLE2=Far away
TTITLE3=Back for good
TTITLE4=Boy from Montana
TTITLE5=Thunder rolls
TTITLE6=Nyc - here I am
TTITLE7=Virginia (live)
TTITLE8=Good time
TTITLE9=The lover
TTITLE10=Come home to me
EXTD=
EXTT0=
EXTT1=
EXTT2=
EXTT3=
EXTT4=
EXTT5=
EXTT6=
EXTT7=
EXTT8=
EXTT9=
EXTT10=
PLAYORDER=
